<?xml version="1.0" encoding="utf-8"?>
<svg viewBox="392.607 112.431 47.036 60.097" xmlns="http://www.w3.org/2000/svg">
  <defs/>
  <title>file document 3d</title>
  <path d="M 415.265 138.653 L 415.265 145.853 L 423.499 150.608 L 431.734 145.853 L 431.734 136.343 L 423.499 131.589 L 417.265 135.188 L 417.265 127.988 L 409.031 123.234 L 400.796 127.988 L 400.796 137.497 L 409.031 142.252 L 415.265 138.653 Z M 417.265 138.653 L 422.497 141.673 L 422.497 147.721 L 417.265 144.697 L 417.265 138.653 Z M 424.497 147.724 L 424.497 141.684 L 429.734 138.655 L 429.734 144.7 L 424.497 147.724 Z M 428.734 136.924 L 423.507 139.947 L 418.265 136.919 L 423.497 133.898 L 428.734 136.924 Z M 415.265 136.343 L 410.028 139.366 L 410.028 133.326 L 415.265 130.298 L 415.265 136.343 L 415.265 136.343 Z M 414.265 128.566 L 409.038 131.588 L 403.798 128.564 L 409.031 125.544 L 414.265 128.566 Z M 402.796 130.295 L 408.028 133.315 L 408.028 139.363 L 402.796 136.343 L 402.796 130.295 Z"/>
  <path d="M 423.831 164.223 L 422.313 164.223 L 422.313 166.455 L 423.855 166.455 C 424.184 166.479 424.512 166.389 424.784 166.2 C 425.017 165.968 425.132 165.643 425.097 165.316 C 425.124 165.008 425.015 164.704 424.797 164.485 C 424.514 164.291 424.173 164.199 423.831 164.223 Z"/>
  <path d="M 424.233 162.539 C 424.353 162.507 424.467 162.454 424.569 162.381 C 424.665 162.311 424.744 162.221 424.803 162.118 C 424.866 162.002 424.897 161.871 424.893 161.738 C 424.912 161.475 424.81 161.217 424.617 161.038 C 424.38 160.857 424.086 160.77 423.789 160.792 L 422.313 160.792 L 422.313 162.592 L 423.837 162.592 C 423.971 162.592 424.104 162.574 424.233 162.539 Z"/>
  <path d="M 438.265 154.304 L 438.265 128.01 L 437.972 127.717 L 423.682 113.427 L 423.389 113.134 L 398.265 113.134 C 396.056 113.134 394.265 114.925 394.265 117.134 L 394.265 150.876 C 393.648 151.23 393.266 151.887 393.265 152.598 L 393.265 167.134 C 393.268 169.894 395.505 172.131 398.265 172.134 L 434.265 172.134 C 437.025 172.131 439.261 169.894 439.265 167.134 L 439.265 156.027 C 439.263 155.315 438.882 154.658 438.265 154.304 Z M 412.329 168.088 L 410.853 168.088 L 410.853 167.395 C 410.581 167.672 410.254 167.888 409.893 168.028 C 409.526 168.154 409.14 168.215 408.753 168.207 C 408.179 168.224 407.61 168.098 407.097 167.842 C 406.653 167.608 406.271 167.273 405.981 166.863 C 405.684 166.437 405.471 165.958 405.351 165.453 C 405.217 164.909 405.149 164.351 405.151 163.791 C 405.149 163.184 405.216 162.578 405.351 161.985 C 405.468 161.445 405.687 160.932 405.995 160.473 C 406.297 160.035 406.703 159.678 407.177 159.434 C 407.736 159.16 408.354 159.026 408.977 159.044 C 409.641 159.042 410.292 159.222 410.861 159.565 C 411.162 159.752 411.424 159.997 411.629 160.286 C 411.874 160.646 412.064 161.04 412.193 161.456 L 410.417 161.924 C 410.273 161.574 410.058 161.258 409.787 160.994 C 409.488 160.762 409.114 160.649 408.737 160.676 C 408.412 160.66 408.094 160.776 407.855 160.997 C 407.629 161.221 407.455 161.491 407.345 161.789 C 407.223 162.111 407.145 162.447 407.111 162.789 C 407.077 163.097 407.059 163.406 407.057 163.715 C 407.059 164.021 407.081 164.326 407.123 164.628 C 407.165 164.951 407.25 165.266 407.377 165.566 C 407.494 165.847 407.677 166.096 407.909 166.292 C 408.16 166.493 408.475 166.596 408.797 166.582 C 409.246 166.601 409.682 166.428 409.997 166.107 C 410.261 165.837 410.422 165.484 410.453 165.107 L 408.813 165.107 L 408.813 163.467 L 412.329 163.467 L 412.329 168.088 Z M 419.409 168.088 L 413.733 168.088 L 413.733 159.159 L 415.641 159.159 L 415.641 166.459 L 419.409 166.459 L 419.409 168.088 Z M 426.13 167.476 C 425.388 167.934 424.521 168.148 423.651 168.088 L 420.405 168.088 L 420.405 159.159 L 423.735 159.159 C 424.119 159.159 424.502 159.195 424.879 159.267 C 425.229 159.331 425.564 159.459 425.867 159.645 C 426.154 159.825 426.391 160.075 426.556 160.371 C 426.738 160.723 426.827 161.115 426.813 161.511 C 426.817 161.897 426.718 162.277 426.526 162.611 C 426.328 162.945 426.036 163.212 425.687 163.38 C 426.113 163.539 426.475 163.834 426.718 164.219 C 426.92 164.629 427.019 165.082 427.005 165.539 C 427.066 166.292 426.735 167.024 426.13 167.475 L 426.13 167.476 Z M 436.265 154.027 L 414.351 154.027 L 411.951 151.281 C 411.571 150.847 411.022 150.598 410.446 150.598 L 396.265 150.598 L 396.265 117.134 C 396.265 116.03 397.16 115.134 398.265 115.134 L 421.975 115.134 L 421.975 125.424 C 421.975 127.633 423.766 129.424 425.975 129.424 L 436.265 129.424 L 436.265 154.027 Z"/>
</svg>