<?xml version="1.0" encoding="utf-8"?>
<svg data-name="Layer 1" viewBox="8.529 2.157 46.844 59.902" x="0px" y="0px" xmlns="http://www.w3.org/2000/svg">
  <defs/>
  <title>file document 3d</title>
  <path d="M31,28.019v7.2l8.234,4.755,8.235-4.755V25.709l-8.235-4.754L33,24.554v-7.2L24.766,12.6l-8.235,4.754v9.509l8.235,4.755Zm2,0,5.232,3.02v6.048L33,34.063Zm7.232,9.071v-6.04l5.237-3.029v6.045Zm4.237-10.8-5.227,3.023L34,26.285l5.232-3.021ZM31,25.709h0l-5.237,3.023V22.692L31,19.664v6.045Zm-1-7.777-5.227,3.022-5.24-3.024,5.233-3.02ZM18.531,19.661l5.232,3.02v6.048l-5.232-3.02Z"/>
  <path d="M54,43.67V17.376l-.293-.293L39.417,2.793,39.124,2.5H14a4,4,0,0,0-4,4V40.242a1.991,1.991,0,0,0-1,1.722V56.5a5.006,5.006,0,0,0,5,5H50a5.006,5.006,0,0,0,5-5V45.393A1.991,1.991,0,0,0,54,43.67ZM26.018,57.454H24.542v-.693a2.735,2.735,0,0,1-.96.633,3.311,3.311,0,0,1-1.14.179,3.48,3.48,0,0,1-1.656-.365,3.192,3.192,0,0,1-1.116-.979,4.144,4.144,0,0,1-.63-1.41,6.877,6.877,0,0,1-.2-1.662,8.011,8.011,0,0,1,.2-1.806,4.386,4.386,0,0,1,.644-1.512A3.236,3.236,0,0,1,20.866,48.8a3.825,3.825,0,0,1,1.8-.39,3.626,3.626,0,0,1,1.884.521,2.653,2.653,0,0,1,.768.721,4.369,4.369,0,0,1,.564,1.17l-1.776.468a2.757,2.757,0,0,0-.63-.93,1.531,1.531,0,0,0-1.05-.318,1.211,1.211,0,0,0-.882.321,2.165,2.165,0,0,0-.51.792,3.918,3.918,0,0,0-.234,1,9.231,9.231,0,0,0-.054.926,7.049,7.049,0,0,0,.066.913,3.516,3.516,0,0,0,.254.938,1.928,1.928,0,0,0,.532.726,1.326,1.326,0,0,0,.888.29,1.586,1.586,0,0,0,1.2-.475,1.618,1.618,0,0,0,.456-1H22.5V52.833h3.516Zm7.08,0H27.422V48.525H29.33v7.3H33.1Zm5.5-7.3H36.326v7.3H34.418v-7.3H32.162V48.525h6.432Zm6.708,0H41.426v1.824h2.892l.012,1.632-2.9.012v3.828H39.519V48.525H45.3ZM52,43.393H30.086l-2.4-2.746a2,2,0,0,0-1.505-.683H12V6.5a2,2,0,0,1,2-2H37.71V14.79a4,4,0,0,0,4,4H52Z"/>
</svg>