<?xml version="1.0" encoding="utf-8"?>
<svg data-name="Layer 1" viewBox="8.627 2.647 46.746 59.902" x="0px" y="0px" xmlns="http://www.w3.org/2000/svg">
  <defs/>
  <title>archive file compressed</title>
  <path d="M20.93,36.011h8.14a1,1,0,0,0,1-1v-3.3H19.93v3.3A1,1,0,0,0,20.93,36.011Z"/>
  <path d="M54,44.17V17.876l-.293-.293L39.417,3.293,39.124,3H14a4,4,0,0,0-4,4V40.741a1.994,1.994,0,0,0-1,1.723V57a5.006,5.006,0,0,0,5,5H50a5.006,5.006,0,0,0,5-5V45.893A1.991,1.991,0,0,0,54,44.17ZM24.224,57.882H22.316V48.954h1.908Zm9.648,0h-1.7V51.8l-1.74,6.084H28.976L27.26,51.811v6.071h-1.7V48.954h2.556L29.7,54.69l1.6-5.736h2.58Zm8.244,0H40.641V57.19a2.739,2.739,0,0,1-.961.633A3.334,3.334,0,0,1,38.541,58a3.485,3.485,0,0,1-1.657-.365,3.179,3.179,0,0,1-1.115-.979,4.154,4.154,0,0,1-.631-1.41,6.877,6.877,0,0,1-.2-1.662,8.075,8.075,0,0,1,.2-1.806,4.392,4.392,0,0,1,.644-1.511,3.234,3.234,0,0,1,1.183-1.044,3.817,3.817,0,0,1,1.8-.391,3.633,3.633,0,0,1,1.883.52,2.644,2.644,0,0,1,.768.722,4.384,4.384,0,0,1,.564,1.17l-1.776.468a2.781,2.781,0,0,0-.629-.93,1.531,1.531,0,0,0-1.051-.318,1.211,1.211,0,0,0-.882.321,2.165,2.165,0,0,0-.51.792,3.971,3.971,0,0,0-.234,1,9.186,9.186,0,0,0-.053.926,7.049,7.049,0,0,0,.066.913,3.563,3.563,0,0,0,.253.938,1.93,1.93,0,0,0,.532.726,1.335,1.335,0,0,0,.888.29,1.59,1.59,0,0,0,1.2-.475,1.623,1.623,0,0,0,.456-1H38.6V53.263h3.515ZM52,43.893H30.086l-2.4-2.747a2,2,0,0,0-1.505-.682H12V7a2,2,0,0,1,2-2h6.847a.991.991,0,0,0-.917.983V6.5a1,1,0,0,0,1,1h2.778v2.521H20.93a1,1,0,0,0-1,1v.521a1,1,0,0,0,1,1h2.778v2.521H20.93a1,1,0,0,0-1,1v.521a1,1,0,0,0,1,1h2.778v2.521H20.93a1,1,0,0,0-1,1v.521a1,1,0,0,0,1,1h2.778v2.521H20.93a1,1,0,0,0-1,1v.521a1,1,0,0,0,1,1h2.778v1.521a1,1,0,0,0,1,1H29.07a1,1,0,0,0,1-1v-.521a1,1,0,0,0-1-1H26.292V25.151H29.07a1,1,0,0,0,1-1V23.63a1,1,0,0,0-1-1H26.292V20.109H29.07a1,1,0,0,0,1-1v-.521a1,1,0,0,0-1-1H26.292V15.067H29.07a1,1,0,0,0,1-1v-.521a1,1,0,0,0-1-1H26.292V10.025H29.07a1,1,0,0,0,1-1V8.5a1,1,0,0,0-1-1H26.292V5H37.71V15.29a4,4,0,0,0,4,4H52Z"/>
</svg>