<?xml version="1.0" encoding="utf-8"?>
<svg version="1.1" x="0px" y="0px" viewBox="60.13 58.926 134.862 135.437" enable-background="new 0 0 256 256" xmlns="http://www.w3.org/2000/svg">
  <g>
    <path fill="#92c8e6" data-title="Layer 1" xs="1" d="M128.5,121.5v69.4l56.4-28.2V93.3"/>
    <path fill="#cf6e6d" data-title="Layer 2" xs="2" d="M127.5,121.5v69.4l-56.4-28.2V93.3"/>
    <path fill="#454C62" data-title="Layer 3" xs="3" d="M127.5,193.6c-0.4,0-0.8-0.1-1.2-0.3l-56.4-28.2c-0.9-0.4-1.4-1.3-1.4-2.3V93.3c0-1.4,1.2-2.6,2.6-2.6 c1.4,0,2.6,1.2,2.6,2.6c0,0,0,0,0,0v67.8l51.2,25.6v-65.2c0-1.4,1.2-2.6,2.6-2.6c1.4,0,2.6,1.2,2.6,2.6v69.4 C130.1,192.4,128.9,193.6,127.5,193.6L127.5,193.6L127.5,193.6z"/>
    <path fill="#CF6E6D" data-title="Layer 4" xs="4" d="M127.5,121.5v69.4l-56.4-28.2V93.3"/>
    <path fill="#454c62" data-title="Layer 5" xs="5" d="M 127.5 192.6 C 127.1 192.6 126.7 192.5 126.3 192.3 L 69.9 164.1 C 69 163.7 68.5 162.8 68.5 161.8 L 68.5 90.3 C 68.5 88.9 69.7 89.7 71.1 89.7 C 72.5 89.7 73.7 90.9 73.7 92.3 C 73.7 92.3 75.7 92.3 75.7 92.3 L 75.7 159.1 L 123.9 182.7 L 123.9 120.5 C 123.9 119.1 126.1 117.9 127.5 117.9 C 128.9 117.9 132.1 119.1 132.1 120.5 L 132.1 189.9 C 132.1 191.4 128.9 192.6 127.5 192.6 Z"/>
    <path fill="#F2B86C" data-title="Layer 6" xs="6" d="M127.5,121.5L71.1,93.3l54.3-28.2l58.6,28.2L127.5,121.5"/>
    <path fill="#454c62" data-title="Layer 7" xs="7" d="M 127.5 123.1 C 127.1 123.1 126.7 125 126.3 124.8 L 69.9 96.6 C 68.6 95.9 68.1 92.4 68.8 91.1 C 68.612 90.681 68.098 88.417 69.9 88 L 124.1 59.8 C 124.8 59.4 125.7 59.4 126.5 59.8 L 185 87.9 C 186.3 88.5 186.8 92.1 186.2 93.4 C 185.9 93.9 185.5 96.4 185 96.6 L 128.6 124.8 C 128.3 125 127.9 123.1 127.5 123.1 Z M 76.8 92.2 L 127.4 117.5 L 178 92.3 L 125.4 67 L 76.8 92.2 Z"/>
    <path fill="#454c62" data-title="Layer 8" xs="8" d="M 127.5 193.6 C 126.1 193.6 124.9 192.4 124.9 191 C 124.9 190 125.5 185.1 126.3 184.7 L 179.4 159.2 L 179.4 93.3 C 179.4 91.9 182.6 90.7 184 90.7 C 185.4 90.7 186.6 91.9 186.6 93.3 C 186.6 93.3 186.6 93.3 186.6 93.3 L 186.6 162.7 C 186.6 163.7 186 164.6 185.2 165 L 128.7 193.2 C 128.3 193.5 127.9 193.6 127.5 193.6 Z"/>
  </g>
</svg>